<svg width="30" height="30" viewBox="0 0 30 30" fill="none" xmlns="http://www.w3.org/2000/svg">
<rect x="-0.5" y="0.5" width="29" height="29" rx="14.5" transform="matrix(-1 0 0 1 29 0)" stroke="#6C6C72"/>
<path d="M20 14.5C20.2761 14.5 20.5 14.7239 20.5 15C20.5 15.2761 20.2761 15.5 20 15.5V14.5ZM9.64645 15.3536C9.45118 15.1583 9.45118 14.8417 9.64645 14.6464L12.8284 11.4645C13.0237 11.2692 13.3403 11.2692 13.5355 11.4645C13.7308 11.6597 13.7308 11.9763 13.5355 12.1716L10.7071 15L13.5355 17.8284C13.7308 18.0237 13.7308 18.3403 13.5355 18.5355C13.3403 18.7308 13.0237 18.7308 12.8284 18.5355L9.64645 15.3536ZM20 15.5H10V14.5H20V15.5Z" fill="#252323"/>
</svg>
